{"title":"Warm Bodies 2013 WEBRip x264 AC3-INFERNO","uid":8474122,"size":1099330358,"categoryP":"video","categoryS":"movies","magnet":"?xt=urn:btih:ab6f145fac870d56120afe4d2207374f7e02700c&amp;dn=Warm+Bodies+2013+WEBRip+x264+AC3-INFERNO&amp;tr=udp%3A%2F%2Ftracker.openbittorrent.com%3A80&amp;tr=udp%3A%2F%2Fopen.demonii.com%3A1337&amp;tr=udp%3A%2F%2Ftracker.coppersurfer.tk%3A6969&amp;tr=udp%3A%2F%2Fexodus.desync.com%3A6969","seeders":0,"leechers":0,"uploader":"R0thschild","files":9,"time":1368570788,"description":"              ***********************************************\n\n                PublicHash - Largest Bittorrent Community\n      \n                         &lt;a href=&quot; http://publichash.com/&quot; rel=&quot;nofollow&quot; target=&quot;_NEW&quot;&gt; http://publichash.com/&lt;/a&gt;\n    \n              ***********************************************\nGeneral\nComplete name: Warm Bodies 2013 WEBRip x264 AC3-INFERNO\nFormat: Matroska\nFormat version: Version 4 / Version 2\nFile size: 1 017 MiB\nDuration: 1h 37mn\nOverall bit rate: 1 454 Kbps\nEncoded date: UTC 2013-05-14 19:30:48\nWriting application: mkvmerge v6.2.0 ('Promised Land') built on Apr 28 2013 12:22:01\nWriting library: libebml v1.3.0 + libmatroska v1.4.0\n\nVideo\nID: 1\nFormat: AVC\nFormat/Info: Advanced Video Codec\nFormat profile: &lt;a class=&quot;__cf_email__&quot; href=&quot;/cdn-cgi/l/email-protection&quot; data-cfemail=&quot;afe7c6c8c7efe39b819e&quot;&gt;[email&amp;#160;protected]&lt;/a&gt;&lt;script data-cfhash='f9e31' type=&quot;text/javascript&quot;&gt;\n/* &lt;![CDATA[ */!function(){try{var t=&quot;currentScript&quot;in document?document.currentScript:function(){for(var t=document.getElementsByTagName(&quot;script&quot;),e=t.length;e--;)if(t[e].getAttribute(&quot;data-cfhash&quot;))return t[e]}();if(t&amp;&amp;t.previousSibling){var e,r,n,i,c=t.previousSibling,a=c.getAttribute(&quot;data-cfemail&quot;);if(a){for(e=&quot;&quot;,r=parseInt(a.substr(0,2),16),n=2;a.length-n;n+=2)i=parseInt(a.substr(n,2),16)^r,e+=String.fromCharCode(i);e=document.createTextNode(e),c.parentNode.replaceChild(e,c)}t.parentNode.removeChild(t);}}catch(u){}}()/* ]]&gt; */&lt;/script&gt;\nFormat settings, CABAC: Yes\nFormat settings, ReFrames: 5 frames\nCodec ID: V_MPEG4/ISO/AVC\nDuration: 1h 37mn\nBit rate: 1 004 Kbps\nWidth: 720 pixels\nHeight: 304 pixels\nDisplay aspect ratio: 2.35:1\nFrame rate mode: Constant\nFrame rate: 23.976 fps\nColor space: YUV\nChroma subsampling: 4:2:0\nBit depth: 8 bits\nScan type: Progressive\nBits/(Pixel*Frame): 0.191\nStream size: 683 MiB (67%)\nWriting library: x264 core 130 r2273 b3065e6\nEncoding settings: cabac=1 / ref=5 / deblock=1:0:0 / analyse=0x3:0x113\n/ me=umh / subme=11 / psy=1 / psy_rd=1.00:0.15 / mixed_ref=1 / me_range=16 / chroma_me=1\n/ trellis=2 / 8x8dct=1 / cqm=0 / deadzone=21,11 / fast_pskip=1 / chroma_qp_offset=-3 / threads=9\n/ lookahead_threads=1 / sliced_threads=0 / nr=0 / decimate=1 / interlaced=0 / bluray_compat=0\n/ constrained_intra=0 / bframes=3 / b_pyramid=2 / b_adapt=2 / b_bias=0 / direct=3 / weightb=1\n/ open_gop=0 / weightp=2 / keyint=240 / keyint_min=23 / scenecut=40 / intra_refresh=0\n/ rc_lookahead=80 / rc=2pass / mbtree=1 / bitrate=1004 / ratetol=1.0 / qcomp=0.60 / qpmin=0\n/ qpmax=69 / qpstep=4 / cplxblur=20.0 / qblur=0.5 / vbv_maxrate=31250 / vbv_bufsize=31250\n/ nal_hrd=none / ip_ratio=1.40 / aq=1:1.00\nDefault: Yes\nForced: No\n\nAudio\nID: 2\nFormat: AC-3\nFormat/Info: Audio Coding 3\nMode extension: CM (complete main)\nFormat settings, Endianness: Big\nCodec ID: A_AC3\nDuration: 1h 37mn\nBit rate mode: Constant\nBit rate: 448 Kbps\nChannel(s): 6 channels\nChannel positions: Front: L C R, Side: L R, LFE\nSampling rate: 48.0 KHz\nBit depth: 16 bits\nCompression mode: Lossy\nStream size: 313 MiB (31%)\nLanguage: English\nDefault: Yes\nForced: No\n\nText #1\nID: 3\nFormat: UTF-8\nCodec ID: S_TEXT/UTF8\nCodec ID/Info: UTF-8 Plain Text\nLanguage: English\nDefault: Yes\nForced: No\n\nText #2\nID: 4\nFormat: UTF-8\nCodec ID: S_TEXT/UTF8\nCodec ID/Info: UTF-8 Plain Text\nLanguage: Arabic\nDefault: No\nForced: No\n\nText #3\nID: 5\nFormat: UTF-8\nCodec ID: S_TEXT/UTF8\nCodec ID/Info: UTF-8 Plain Text\nLanguage: Persian\nDefault: No\nForced: No\n\nMenu\n00:00:00.000: Chapter 1\n00:05:00.000: Chapter 2\n00:10:00.000: Chapter 3\n00:15:00.000: Chapter 4\n00:20:00.000: Chapter 5\n00:25:00.000: Chapter 6\n00:30:00.000: Chapter 7\n00:35:00.000: Chapter 8\n00:40:00.000: Chapter 9\n00:45:00.000: Chapter 10\n00:50:00.000: Chapter 11\n00:55:00.000: Chapter 12\n01:00:00.000: Chapter 13\n01:05:00.000: Chapter 14\n01:10:00.000: Chapter 15\n01:15:00.000: Chapter 16\n01:20:00.000: Chapter 17\n01:25:00.000: Chapter 18\n01:30:00.000: Chapter 19\n01:35:00.000: Chapter 20\nIMDb Rating: 7.2/10\nIMDb: http://www.imdb.com/title/tt1588173/?ref_=sr_1\nPlot: After R (a highly unusual zombie) saves Julie from an attack\nthe two form a relationship that sets in motion a sequence of events that might transform the\nentire lifeless world\n\nDirector: Jonathan Levine\nWriter: Jonathan Levine (screenplay), Isaac Marion\nStars: Nicholas Hoult, Teresa Palmer, Analeigh Tipton\nGenre: Comedy | Horror | Romance - 1 February 2013 (USA)\nRated: PG-13","torrent":{"xt":"urn:btih:ab6f145fac870d56120afe4d2207374f7e02700c","amp;dn":"Warm+Bodies+2013+WEBRip+x264+AC3-INFERNO","amp;tr":["udp%3A%2F%2Ftracker.openbittorrent.com%3A80","udp%3A%2F%2Fopen.demonii.com%3A1337","udp%3A%2F%2Ftracker.coppersurfer.tk%3A6969","udp%3A%2F%2Fexodus.desync.com%3A6969"],"infoHash":"ab6f145fac870d56120afe4d2207374f7e02700c","infoHashBuffer":{"type":"Buffer","data":[171,111,20,95,172,135,13,86,18,10,254,77,34,7,55,79,126,2,112,12]},"announce":[],"urlList":[]}}